<?xml version="1.0" standalone="no"?>
<!DOCTYPE svg PUBLIC "-//W3C//DTD SVG 20010904//EN"
 "http://www.w3.org/TR/2001/REC-SVG-20010904/DTD/svg10.dtd">
<svg version="1.0" xmlns="http://www.w3.org/2000/svg"
 width="400.000000pt" height="400.000000pt" viewBox="0 0 400.000000 400.000000"
 preserveAspectRatio="xMidYMid meet">
<metadata>
Created by potrace 1.14, written by Peter Selinger 2001-2017
</metadata>
<g transform="translate(0.000000,400.000000) scale(0.100000,-0.100000)"
fill="#000000" stroke="none">
<path d="M0 2000 l0 -2000 2000 0 2000 0 0 2000 0 2000 -2000 0 -2000 0 0
-2000z m1695 818 c81 -26 188 -95 255 -162 30 -31 59 -56 65 -56 6 0 31 21 55
46 104 107 232 176 358 194 233 33 455 -122 523 -365 9 -30 14 -93 13 -160 -1
-94 -6 -124 -33 -206 -53 -165 -178 -337 -376 -521 l-41 -38 -84 56 c-47 31
-87 58 -89 60 -3 3 51 59 118 127 131 130 224 256 260 351 64 173 40 333 -66
425 -56 50 -99 64 -177 59 -85 -5 -162 -45 -251 -129 -81 -77 -140 -108 -204
-109 -79 0 -121 20 -201 96 -104 99 -172 136 -264 142 -59 4 -79 1 -118 -18
-118 -55 -179 -189 -158 -343 31 -219 207 -436 602 -743 l132 -102 26 18 c55
39 55 45 0 85 -28 20 -55 46 -61 57 -23 43 20 113 85 138 34 13 62 6 96 -25
46 -42 203 -150 347 -239 107 -66 143 -93 147 -113 10 -37 -27 -106 -69 -129
-44 -23 -56 -19 -198 70 -60 37 -113 66 -120 63 -7 -2 -55 -38 -108 -79 -159
-125 -130 -122 -256 -27 -618 470 -808 707 -839 1045 -19 211 93 422 270 509
117 57 234 65 361 23z"/>
</g>
</svg>
